<svg id="ART" xmlns="http://www.w3.org/2000/svg" xmlns:xlink="http://www.w3.org/1999/xlink" viewBox="0 0 348.6 226.32"><defs><style>.cls-1{fill:#fff;}.cls-2{fill:url(#linear-gradient);}.cls-3{fill:url(#linear-gradient-2);}</style><linearGradient id="linear-gradient" x1="236.27" y1="117.08" x2="205.03" y2="58.04" gradientUnits="userSpaceOnUse"><stop offset="0" stop-color="#d9dce1"/><stop offset="1" stop-color="#fff"/></linearGradient><linearGradient id="linear-gradient-2" x1="255.62" y1="117.82" x2="311.59" y2="117.82" gradientUnits="userSpaceOnUse"><stop offset="0" stop-color="#00c9ff"/><stop offset="0.1" stop-color="#09cef8"/><stop offset="0.7" stop-color="#39ead4"/><stop offset="1" stop-color="#4bf5c6"/></linearGradient></defs><title>BlockDX_vert_neg_RGB</title><path class="cls-1" d="M238.08,58.91h-68l34,58.91-34,58.91h68l34-58.91Zm-11.34,98.18H204.07l22.68-39.27L204.07,78.55h22.67l22.67,39.27Z" transform="translate(-63.78 -58.91)"/><path class="cls-2" d="M272.09,117.82l-34-58.91h-68l34,58.91h22.67L204.07,78.55h22.67l22.67,39.27Z" transform="translate(-63.78 -58.91)"/><path class="cls-3" d="M269.26,83.45l14.17-24.54H306.1l-25.51,44.18Zm0,68.73,14.17,24.54h22.66l-25.5-44.18Z" transform="translate(-63.78 -58.91)"/><path class="cls-1" d="M86.7,225.82c10.92,0,17.79,6.21,17.79,16.13a13.34,13.34,0,0,1-7.94,12.49c4.55,1.82,8.85,6.21,8.85,13.65,0,10.84-7.36,16.63-17.79,16.63H63.78V225.82Zm-14,8v16.88H86c5.71,0,9.6-3,9.6-8.44s-3.89-8.44-9.6-8.44Zm0,24.91v18H86.78c6.21,0,9.68-3.81,9.68-9s-3.48-8.94-9.68-8.94Z" transform="translate(-63.78 -58.91)"/><path class="cls-1" d="M123.44,276.7h28.38v8H114.5V225.82h8.94Z" transform="translate(-63.78 -58.91)"/><path class="cls-1" d="M191,231.28c5.79,5.79,6,11.67,6,24s-.17,18.2-6,24c-3.81,3.81-8.77,6-15.22,6s-11.42-2.15-15.22-6c-5.79-5.79-6-11.67-6-24s.17-18.2,6-24c3.81-3.81,8.77-6,15.22-6S187.23,227.47,191,231.28Zm-24,5.63c-2.9,3.14-3.47,6.7-3.47,18.37s.58,15.14,3.47,18.29a12.38,12.38,0,0,0,17.54,0c3-3.06,3.47-6.62,3.47-18.29s-.5-15.31-3.47-18.37a12.59,12.59,0,0,0-17.54,0Z" transform="translate(-63.78 -58.91)"/><path class="cls-1" d="M247.55,243.44h-9.1c-1.32-6-5.38-10.09-11.91-10.09a11.46,11.46,0,0,0-8.69,3.56c-3,3.14-3.56,6.7-3.56,18.37s.58,15.22,3.56,18.37a11.46,11.46,0,0,0,8.69,3.56c6.54,0,10.59-4.05,11.91-10.09h9.1c-2.07,11.67-10.26,18.12-21,18.12-6.45,0-11.42-2.15-15.22-6-5.71-5.79-6-11.67-6-24s.25-18.2,6-24c3.81-3.81,8.77-6,15.22-6C237.38,225.32,245.49,231.78,247.55,243.44Z" transform="translate(-63.78 -58.91)"/><path class="cls-1" d="M280.16,248.9l21.1,35.83H290.75l-16.55-29-9.93,11.91v17.13h-8.94V225.82h8.94v29.62l24.08-29.62h10.92Z" transform="translate(-63.78 -58.91)"/><path class="cls-1" d="M343.79,225.82c7.36,0,12.58,2.32,16.71,7.45,4.3,5.3,4.47,12.58,4.47,22s-.17,16.71-4.47,22c-4.14,5.13-9.35,7.45-16.71,7.45H323.1V225.82Zm-11.75,8V276.7h10.76c4.22,0,7.61-1.08,10.09-4,2.9-3.23,3.14-8.69,3.14-17.46s-.25-14.23-3.14-17.46c-2.48-2.9-5.87-4-10.09-4Z" transform="translate(-63.78 -58.91)"/><path class="cls-1" d="M394.09,254.53l18.29,30.2H402l-12.82-22.59-12.74,22.59H366.21l18.2-30.2-17-28.71h10.26l11.58,21.1,11.67-21.1h10.26Z" transform="translate(-63.78 -58.91)"/></svg>