<svg id="ART" xmlns="http://www.w3.org/2000/svg" viewBox="0 0 691.1 117.82"><defs><style>.cls-1{fill:#fff;}.cls-2{fill:#989696;}</style></defs><title>Blocknet_hor_neg_RGB</title><path class="cls-1" d="M158.72,58.91h-68l34,58.91-34,58.91h68l34-58.91Zm-11.34,98.18H124.71l22.67-39.27L124.71,78.55h22.67l22.67,39.27Z" transform="translate(-56.69 -58.91)"/><polygon class="cls-2" points="36.85 83.46 25.51 103.09 0 58.91 25.51 14.73 36.85 34.36 22.67 58.92 36.85 83.46"/><path class="cls-1" d="M268.64,78.54c14.56,0,23.72,8.27,23.72,21.51,0,8.49-5.3,14.56-10.59,16.66,6.07,2.43,11.8,8.27,11.8,18.2,0,14.45-9.82,22.17-23.72,22.17H238.08V78.54ZM250,89.24v22.51h17.65c7.61,0,12.8-4,12.8-11.25s-5.18-11.25-12.8-11.25Zm0,33.21v23.94h18.75c8.27,0,12.91-5.07,12.91-12s-4.63-11.91-12.91-11.91Z" transform="translate(-56.69 -58.91)"/><path class="cls-1" d="M317.62,146.39h37.84v10.7H305.71V78.54h11.92Z" transform="translate(-56.69 -58.91)"/><path class="cls-1" d="M407.76,85.82c7.72,7.72,7.94,15.56,7.94,32s-.22,24.27-7.94,32c-5.07,5.07-11.69,7.94-20.3,7.94s-15.22-2.87-20.3-7.94c-7.72-7.72-7.94-15.56-7.94-32s.22-24.27,7.94-32c5.07-5.07,11.69-7.94,20.3-7.94S402.68,80.75,407.76,85.82Zm-32,7.5c-3.86,4.19-4.63,8.94-4.63,24.49s.77,20.19,4.63,24.38a16.51,16.51,0,0,0,23.39,0c4-4.08,4.63-8.83,4.63-24.38s-.66-20.41-4.63-24.49a16.79,16.79,0,0,0-23.39,0Z" transform="translate(-56.69 -58.91)"/><path class="cls-1" d="M483.11,102H471c-1.76-8.05-7.17-13.46-15.89-13.46a15.29,15.29,0,0,0-11.58,4.74c-4,4.19-4.74,8.94-4.74,24.49s.77,20.3,4.74,24.49a15.29,15.29,0,0,0,11.58,4.74c8.71,0,14.12-5.41,15.89-13.46h12.14c-2.76,15.56-13.68,24.16-28,24.16-8.61,0-15.22-2.87-20.3-7.94-7.61-7.72-7.94-15.56-7.94-32s.33-24.27,7.94-32c5.07-5.07,11.69-7.94,20.3-7.94C469.54,77.88,480.36,86.49,483.11,102Z" transform="translate(-56.69 -58.91)"/><path class="cls-1" d="M526.58,109.32l28.13,47.77h-14l-22.06-38.72L505.4,134.26v22.84H493.49V78.54H505.4V118l32.1-39.49h14.56Z" transform="translate(-56.69 -58.91)"/><path class="cls-1" d="M621.9,157.09H611l-36.29-55.27v55.27H562.77V78.54h10.92L610,133.81V78.54H621.9Z" transform="translate(-56.69 -58.91)"/><path class="cls-1" d="M684.9,89.24H646.62v22.95h32.65v10.7H646.62v23.5H684.9v10.7H634.7V78.54h50.2Z" transform="translate(-56.69 -58.91)"/><path class="cls-1" d="M747.79,89.24H726.16v67.85H714.25V89.24H692.63V78.54h55.16Z" transform="translate(-56.69 -58.91)"/></svg>