<svg id="ART" xmlns="http://www.w3.org/2000/svg" xmlns:xlink="http://www.w3.org/1999/xlink" viewBox="0 0 136.04 117.82"><defs><style>.cls-1{fill:url(#linear-gradient);}.cls-2{fill:#051937;}.cls-3{opacity:0.25;fill:url(#linear-gradient-2);}</style><linearGradient id="linear-gradient" x1="142.25" y1="117.82" x2="198.22" y2="117.82" gradientUnits="userSpaceOnUse"><stop offset="0" stop-color="#00c9ff"/><stop offset="0.1" stop-color="#09cef8"/><stop offset="0.7" stop-color="#39ead4"/><stop offset="1" stop-color="#4bf5c6"/></linearGradient><linearGradient id="linear-gradient-2" x1="122.89" y1="117.08" x2="91.66" y2="58.04" gradientUnits="userSpaceOnUse"><stop offset="0" stop-color="#fff"/><stop offset="1" stop-color="#051937"/></linearGradient></defs><title>BlockDX_symbol_pos_RGB</title><path class="cls-1" d="M155.89,83.45l14.17-24.54h22.67l-25.51,44.18Zm0,68.73,14.17,24.54h22.66l-25.5-44.18Z" transform="translate(-56.69 -58.91)"/><path class="cls-2" d="M124.71,58.91h-68l34,58.91-34,58.91h68l34-58.91Zm-11.34,98.18H90.69l22.68-39.27L90.7,78.55h22.67L136,117.82Z" transform="translate(-56.69 -58.91)"/><path class="cls-3" d="M158.72,117.82l-34-58.91h-68l34,58.91h22.67L90.7,78.55h22.67L136,117.82Z" transform="translate(-56.69 -58.91)"/></svg>